<svg xmlns="http://www.w3.org/2000/svg" width="40" height="40" fill="none" viewBox="0 0 40 40"><path d="M34.605 20.702c-.127-.013-.233.103-.19.245a.1.1 0 0 1-.036-.013l-.592-.419c-.04-.028-.05-.084-.03-.127.111-.005.232-.065.218-.205.045.06.682.413.63.519m-2.177-2.129-.109.142c-.655-.776-2.87-1.665-3.828-1.52l.018-.177-.007.004.364-.239-.31-.267c.002-.037-.2-1.34-.2-1.34l.548-.017s-.195.237-.204.425q.047.034.076.096c.11-.049.227-.284.227-.284l.053.769s-.154-.222-.264-.261a.2.2 0 0 1-.04.076c.16.512.881.542.881.103-.023-.228-.267-.19-.254.05-.395-.325.139-.842.36-.32-.028-.302-.005-.471.221-.619.15.194.128.377-.032.668.485-.466.671.325.214.441.223-.414-.418-.284-.182.151.215.34.737.29.919-.08a.2.2 0 0 1-.027-.069c-.182-.037-.453.123-.453.123l.252-.711s.107.304.259.4a.23.23 0 0 1 .099-.055c.029-.186-.154-.481-.154-.481l.845.338s-.334.087-.44.242q.03.052.034.108c.175.038.46-.111.46-.111l-.301.69s-.088-.302-.245-.403a.2.2 0 0 1-.07.034c-.118.4.232.79.616.69.464-.145.096-.692-.03-.235-.251-.401.426-.844.458-.172.081-.323.192-.47.433-.51.064.264-.036.404-.261.604.521-.228.545.52.041.481.175-.168.02-.36-.151-.212-.302.326.263.791.704.56a.2.2 0 0 1 .02-.084c-.11-.079-.37-.088-.37-.088l.54-.413s-.064.25-.012.381a.2.2 0 0 1 .118.013c.115-.12.122-.444.122-.444l.403.519s-1.011.482-1.191.622l-.28-.028.139.409zm-2.977-3.782c.168.061.327.153.498-.02-.164-.003-.213-.12-.261-.234-.08-.577.83-.372 1.17-.33.853.535 2.306.193 1.8-1.084.396.253.26.953-.04 1.225-.79.44-1.537.11-2.324.973-.12-.394-.574-.373-.736.063-.15.01-.19.008-.332.017-.028-.23.153-.394.225-.61m2.108-2.216c-.252.179-.48.442-.736.085-.06.012-.108.023-.17.034.381-.61.35-.506.907-.12m.86-1.397c.187.215.269.448.269.713-.18-.063-.26-.269-.27-.713m-7.861 3.461.953-.35.35.728-.663.437zm-.614-.171c-.121.754-1.756.43-1.598-.318.121-.754 1.755-.43 1.598.318m-3.251.328-1.02-.745 1.022-.746 1.021.745zm-2.34.092c-1.036.216-1.256-.962-.216-1.158 1.036-.218 1.256.962.216 1.158m-2.162.566-.662-.437.35-.728.953.35zm12.58-2.37c.083-.01.15-.017.241-.026-.158-.12-.003-.284.129-.166.312.252-.316.663-.37.192m6.325 8.456-.087-.01-.235-.656c.11-.146.17-.38-.003-.497-.23-.093-.872-.855-1.063-.362-.082.03-.593.06-.632.159a6 6 0 0 1-.603-1.3c.1-.549 1.505-1.234 1.505-1.234s-.4-.594-.56-.93c-.07.165-.135.095-.288.166.78-1.434.946-3.323-.087-4.679-.106-.235-.057-.545-.162-.776-.179-.245-.302-.727-.62-.777-.001.426-.043.844.156 1.24.213.274-.289.508-.446.29.3-.036.35-.098.247-.274-1.29-.298-2.01.639-3.242.787a.29.29 0 0 0-.267.141c-.758 1.057.944.335 1.092 1.037-.283.24-.323.082-.59.01-.383.016-.755.14-.276.475-.293.474-.278.642-.87.684.256.375.2.918.269 1.344-.424.082-.711.293-.72.76-.19.044-.396-.058-.531.155-.265-.228-.572-.271-.89-.275a7 7 0 0 0-.939-.616l.23-.872c.119-.078.545-.358.655-.433l-.343-.715c.76-2.706 1.007-2.857 1.392-2.916l.021-.075-1.408-.465-.023.093c.354.267.47.712.309 1.23-.376-.167-.59-.537-.55-.866l-.093-.026-.471 1.615.076.023a.86.86 0 0 1 .88-.366c-.435 1.432-2.393.984-2.043-.232.25-.502.724-.18.495.346 1.099-.398.45-2.034-.49-1.057.311-.66.488-1.177.098-1.813-.505.338-.635.945-.538 1.757-.62-1.468-1.702.043-.823.808-.159-1.088 1.139-.37.26.508-.838.614-1.868-.091-1.897-1.174.483.044.854.341.902.713l.089.002.061-1.847-.11-.005c-.076.375-.468.69-.966.7.035-.57.35-1.012.758-1.087v-.104h-2.061v.104c.41.075.726.517.758 1.087-.496-.01-.89-.325-.964-.7l-.11.005.06 1.847.088-.002c.05-.372.42-.668.905-.713-.031 1.083-1.062 1.788-1.9 1.174-.879-.877.421-1.596.26-.508.881-.767-.203-2.274-.82-.808.095-.812-.033-1.42-.54-1.757-.39.636-.214 1.154.097 1.813-.94-.977-1.587.66-.49 1.057-.227-.525.246-.846.495-.346.352 1.217-1.608 1.662-2.041.232a.86.86 0 0 1 .88.366l.075-.023-.472-1.615-.091.026c.04.329-.174.699-.55.867-.162-.52-.046-.964.31-1.23l-.026-.094-1.406.465.02.075c.384.06.632.21 1.392 2.916l-.343.715c.108.073.54.357.655.433q.1.371.207.792l.01-.006q-.005.017-.01.006c-1.891.915-1.462 1.536-2.918 1.357-.13.312-.253.62-.55.833-.053-.478-.26-.848-.532-1.186-.133-.162-.317.017-.52.034-.393.89-.667.086-1.362.55.027.417.088.83.308 1.212q-.776-.057-1.288-.433c-1.547 1.789-3.165 3.507-4.488 5.473-.706.967-2.597.405-2.097-.926.227-.971 1.584-.766 1.5.2.67-.772.238-1.54-.786-1.367.94-.422 1.506.375 2.352-.72-.648.016-1.196-.197-1.843-.042.818-.506 1.94.245 2.64-1.152-.609.067-1.16.33-1.788.427 3.777-3.724.143-3.907.605-5.519-.296.26-.466.52-.328.867-.847-.366-2.102-.258-2.443-1.32-.083 1.512.56 1.404 1.665 1.717-.51-.063-1.013-.069-1.491-.25.099.678.595.822 1.182.758-.574.329-.444 1.173.14 1.464-.373-2.19 2.799-1.44 1.35.571-.672 1.037-1.643 1.808-2.461 2.713-.155-.274-.314-.552-.672-.513.621.745-.08 1.551-.245 2.319-.24.948.568 1.755 1.437 1.865-.347.424-.374.801-.109 1.148.262-1.393 2.215-1.079 2.4-2.586.032-.177.113-.315.306-.395-.88 1.028 1.235 3.205-.753 3.46-.283.009-.353.317-.196.537-.822-.043-1.047.28-1.172 1.081l1.038-.278c-.357.969-1.17-.058-1.036 1.667a10 10 0 0 0 .948-.534c.292.967-1.488.55-.15 2.093.085-.287.442-.877.624-1.01-.166.487-.126 1.05.401 1.268l.069-.359c.023-.002.02-.002.043-.002.076.322.087.77.388.956.1.042.154.098.186.206.056.18.217.226.372.248.198.043.247-.188.393-.282.04.256.333.295.475.514.11-1.257-1.502-.801-1.132-1.632.143.506.6.396.92.603.122.21.425.385.579.093.15.116.285.22.418.325-.314-1.494-1.063-.57-1.532-1.354.327.015.677.52 1.03.176.192.202.34.44.483.68.057-.476-.114-.84-.477-1.106-.41-.26-.966.202-1.316-.317-.478-.61-.464-1.468-.215-2.173.228-.546.865-.75 1.157-1.262-.08.453-.04 1.245.459 1.392-.121-.844.46-1.605.577-2.421.152-.208.16-.368.022-.59-.247-.42-.316-.924-.588-1.339-.425-.614-.948-.631-.083-1.279-.524.842-.096.536.357 1.33.083-.268.47-.617-.013-.615-.761-.388.991-1.393 1.388-1.419.39-.032.94.013 1.235-.384-.186-.365-.366-.417-.05-.796-.213-.127-.401-.282-.437-.571l-.592.213c.191-.224.754-.678.816-.176.012.284.283.334.494.405-.153.23-.41.463-.177.734.165.175.266.51.517.553.066-.262.131-.514.198-.771.556.6-.556.937.968 1.477-.056-.325-.105-.64-.065-.975.734.635-.316 1.032 1.375 1.24-.188-.232-.23-.488-.301-.747.283.048.51.328.693.537.175.273.303.424.7.155.018.049.022.114.056.142.179.14.107.31.103.499h.049c.236-.247.252-.529.178-.835-.162-.58-.846-.12-1.086-.71.323.227.644.36 1 .169.198.194.281.336.377.609.163-.624-.025-1.26-.662-1.074-.197.073-.278.056-.479-.121.296.104.491-.053.68-.193.042.056.066.118.093.12.18.01.296.123.406.26.06-.535-.453-.966-.97-.832-.13.656-.66.286-1.08.198-.656-.396-.999-1.154-1.578-1.648a1.173 1.173 0 0 0-1.244-1.277c.64-.29 1.4.28 1.451.97.024.282.19.462.363.673 2.165-4.502 9.148-5.678 13.16-2.822.34.323.712.588 1.066.928.139-.43.056-.94.677-.68l.116-.081c-.127-.363.135-.773.503-.8v.282a.325.325 0 0 0-.26.363c.123-.027.237.142.168.252.117.069.28.04.37-.058.103.005.206.017.309.026-.141.347-.632.467-.906.21l-.002.003c.054.076-.184.84-.195.931a.23.23 0 0 1-.235.18l.12.203c.176-.1.422-.095.398-.35.033-.146-.058-.819.145-.759.08.254-.073.55.11.801.577-.147.325-.689 1.027-.83.278-.027.864-.167 1.016.12-.614-.17-1.406.006-1.54.73-.639.156-1.173.626-1.852.626-.54.03-.686.7-.707 1.16-.09.526-.118 1.075-.345 1.564-.112.185-.018.402.043.573.206.114.354.856.383 1.12-.002.484.801.645 1.128.945.09-.605-1.02-.433-.864-1.279.198.56.628.676 1.1.95-.147-.565-.192-1.51-.956-1.39-.296-.426.135-.45-.004-.954.22.07.325.15.383.29l-.222-.074c.025.359.327.445.558.691-.04-.588-.09-.96-.62-1.245-.299-.284.047-.937.028-1.33-.011-.115.706-.483.816-.451.53.072 1.088-.015 1.6.123.515.168.075-.984.903-.377-.6-.183-.234.493-.668.528-.303.004-.561-.026-.875-.037 1.088 2.507 3.503 1.772 4.168 4.008.556-.506.178-.498.023-1.028 1.255.864-1.17 1.867-.26 3.383-.056-.17.513-.88.578-1.025.105-.159.28-.17.394-.054l.182-.389c-.338-.192.272-1.012.318-1.245.063-.14.205-.207.319-.148l.17-.487c-.32-.09-.08-.89-.105-1.113-.45-.42-.818-.946-1.166-1.432l.215-.039c-.024.11.014.23.104.293.156.064.744.652.93.514l.094.26c-.15.042-.177.259-.177.404.08.07.164.135.242.206.01-.053.002-.29.049-.325.068.095.196.095.274.018.072.04-.018.559-.01.624q.132.145.248.303c-.032-.238.25-1.147-.142-1.192"/><path d="M27.455 17.724c-.045-.056-.056-.136-.016-.196-.07-.015-.192.676-.215.715q.07.072.13.142c.063.02.17.058.191-.037l.152-.61c-.07.068-.184.074-.242-.014m-8.912 17.245c-1.675-.687-2.892.991-1.525 1.275-1.5.067-1.21-2.117-1.83-1.987.543.605.543 1.731 1.043 2.043 1.009.442 2.056.515 3.137.465-.545-.5-.677-1.13-.825-1.796m5.114 1.25c1.364-.28.155-1.96-1.526-1.275-.148.667-.28 1.296-.823 1.796 1.08.053 2.127-.02 3.136-.463.5-.311.5-1.44 1.041-2.044-.617-.129-.328 2.054-1.828 1.987m10.976-13.545a.1.1 0 0 0 .03.086c.075-.066.196-.04.252.04.087-.026.058-.306.076-.373a5 5 0 0 0-.314-.315zm-.42 2.078c.009-.08.43-.801.32-.865a.184.184 0 0 1-.197-.102c-.101-.045-.37.743-.416.791.134-.086.304.056.259.217a.1.1 0 0 0 .034-.041"/><path d="M39 21.425c-.35.11-.495.412-.626.754-.881-1.421-2.555-2.401-2.81-4.14.198-1.389 1.977-1.071 1.617.378.922-.514.476-1.47-.394-1.638.946.079 1.462.904 2.108-.468-.56.209-1.411.06-1.704.015 1.177-.165 1.816-.154 1.78-1.664-.4.904-1.509.92-2.316 1.215.05-.403-.07-.65-.383-.778.32 2.207-3.729 1.488.719 6.253-.545-.31-1.179-.206-1.708-.553.412 1.146 1.107.949 2.017 1.35-.977-.006-1.28.98-.556 1.453-.188-.762.821-1.285 1.328-.691 1.155 1.535-.958 3.667-2.834-.18.013.213-.13.404-.33.34l-.211.607c.43.166-.23 1.023-.275 1.27-.075.164-.242.215-.366.125l-.208.444c.26.247-.438.945-.518 1.163-.081.126-.225.169-.328.101l-.076.16q.025.033.029.035c.474.578.691 1.026.563 1.643.385-.342.558-1.287.25-1.802.347.375.853.644 1.051 1.124.2.872.047 1.736-.525 2.425-.243.252-.178.387-.21.695-.162.493-.73.534-.945.95-.15.364-.399.663-.506 1.046.645-.105.535-1.037 1.145-1.225-.247.39-.487.747-.657 1.199.51-.137 1.473-.279 1.312-1.024-.12-.343.2-.57.184-.898.405-.15.31-.317.504-.644.09.196.094.364.083.577l-.116-.25c-.287.401-.048.791-.088 1.221 1.408-1.305-.462-1.296 1-4.186.336-.577-.957-.512-1.052-1.813-.09-.562.386-1.023.489-1.56.561 1.035 2.529 1.002 2.26 2.324.395-.308.379-.874.222-1.298 2.029-.756.428-2.687 1.081-4.055"/><path d="M32.96 26.397c.045.02.085.052.101.102a.09.09 0 0 0 .092-.046c.017-.05.517-.729.459-.775-.056-.019-.107-.058-.123-.118-.049-.048-.117-.07-.164.002-.018.086-.576.736-.433.82a.12.12 0 0 1 .068.015m-.292.134q.014.023.025.045l.01-.019zm-19.632 2.94c.202.038.428.08.624-.012-.306-.54-.606-1.07-.92-1.62-.545.692-1.491.27-2.085-.158-.484-.37.561-.943.226-2.173.465.777-.381 1.447.925 1.882-.379-.58-.326-1.33-.469-1.994-.016-.116-.07-.23.018-.346.044-.158.054-.373-.155-.397-1.459-.866-1.164-.446-2.587-.646-.346.636.394 1.204.277 1.828-.105.304.342.291.337.59.1.463.05 1.114-.46 1.292-.255.16-.053.496.171.575-.453.844-.106.978.585 1.4.005-.325.01-.61.14-.887.956.656-.467.766 1.425 1.56-.191-.327-.186-.684-.215-1.013.179.043.352.086.531.131.206.906.679.984 1.514.904-.297-.306-.382-.706-.6-1.025.252.087.501-.092.718.11m17.043-5.046c-.258.043-.317.157-.27.418-.288.644-.297 1.427-.79 1.972 1.062-.31.827-.726 1.086-1.56-.055 1.132.003 1.117.398 1.89-.817.596-2.153.098-2.6 1.251.124.148.285-.003.45.038-.106.132-.15.291-.319.407.036-.112.06-.181.083-.25-.307-.107-.558.618-.787.851 2.184-.454-.263-1.117 4.04-1.636.762-.371-.719-.952.774-1.928.134-.534.213-1.085.495-1.569.067-.158-.04-.38-.179-.49-.655.475-.966-.294-2.38.606M8.032 15.14c.01-.15.02-.293.029-.454-.162-.03-.314-.056-.484-.086.199-.155.439-.192.632-.115-.166.73.132 1.243.886 1.284.23-.357.437-.409.66-.159-.994-.106-.255.983.252.613.135-.202.565-.38.44-.663-.789-.598-.734.284-.88-1.191l-.102-.008c-.074.28-.339.495-.556.232-.075-.088-.142-.17-.265-.192.54-.447 1.182.197 1.143-.852.602.78.655-.088 1.25-.099-.027.618-.15.572-.664.536.168.133.81.795.435.857-.155-.414-.418-.818-.863-.9-.359.37-.184.786-.126 1.214.318-.112.59-.327.928-.299.112.342-.417.528-.117.868.514.086 1.072.09.907-.663-.167-.102-.333-.173-.507.017.01-.293.286-.343.5-.287.475-.523.316-1.214-.193-1.632.136-.206.278-.348.522-.398-.083.178-.255.241-.294.403l.323.411c.274-.125.345-.567.15-1.02-.336.09-.93.38-.93.38-.289-.116-.164.033-.123.177-.928.177-1.837.43-2.574 1.064-.132.101-.193.041-.236-.153-.089-.14-.128.101-.141.16 0 0-.558.14-.8.356.172.293.414.754.798.599"/><path d="M11.673 14.85c.085.434-.034.796-.31 1.138.413.763 1.111 1.342 1.42 2.167.69-1.33-.047-1.78-.994-2.507.608.224 1.222.44 1.559 1.038.072-1.14-.417-1.71-1.487-1.886q.003-.025.009-.048c.447-.021.89-.02 1.308.263-.11-.355-.388-.878-.792-.833.144-.314.143-.523-.004-.711-.068.22-.204.356-.422.364.047.396-.08.724-.287 1.015m-3.41 2.601c.126.32.318.69.63.822-.16-.63.25-1.176.44-1.746.004 1.31-.716 2.022 1.022 2.504-.464-.771-.157-1.708-.45-2.5-.279-.166-.593-.207-.783-.45-.052-.114-.146-.157-.247-.18-.327-.072-.628-.184-.792-.466a.73.73 0 0 1-.603-.026c-.018.28.21.562.514.454-.242.367-.108.696-.018 1.073.173-.377.439-.605.737-.795-.228.401-.634.806-.45 1.31m6.98 13.388c.237-.226-.085-.359-.209-.533-2.097-2.02-2.88-4.643-2.695-7.558l-.218-.114c-.352 3.092.801 6.21 3.122 8.205m18.728-16.797c-.198.398.377.562.385.94l-.428-.352c-.183.736.659.973.917 1.552.337-1.074.155-1.725-.874-2.14M10.926 17.21c-.556.035-.475-.687-.638-1.093-.1.12-.184.217-.274.323.114.402.23.803.35 1.23.094-.068.172-.124.253-.186.388.284.744.09.872-.353.115.028.22.08.301-.005-.18-.389-.355-.764-.534-1.147-.112.025-.217-.138-.348-.01.124.36.583 1.075.018 1.24m22.939-4.967-.01.049-.53-.03c.195.652.924.336 1.384.633-.265-.523-.455-1.033-1.067-1.132.066-.31-.016-.603-.202-.719.004.273-.106.471-.346.574-.117.54.426.511.77.625m-.16 3.746-.043.007c-.124.575.262 1.077.502 1.568.419-.77.403-1.646-.269-2.257-.204.409.081.8.182 1.188l-.041.016zm-.153-3.24c.239.59.623.448.872.835l-.576-.196c-.01.629.753.694 1.177.935-.068-1.016-.545-1.4-1.473-1.574m-2.204-1.064c.262 0 .637.172.854.015.006-.857-1.005-.743-1.581-.762.173.321.39.639.727.747m-2.873 12.22-.654-.054c.01.12.016.21.022.306l.363.092c.036.707-.341.718-.849.424-.151.896 1.244.804 1.118-.768m-.484-2.858c-.77.974-.776 1.116.397 1.536l-.027-.265a2.3 2.3 0 0 1-.659-.302c.15-.19.287-.366.43-.55zm-3.587-3.553.354-.028c.123-.477-.137-.529-.451-.785-.128.394-.466.587-.657.92.31-.022.487-.124.664-.375zm1.77 2.16c.113-.314.692-1.085.38-1.328-.144.088-.446.05-.419.286v1.029zm5.766-8.776q.02-.027.036-.052c-.325-.482-.465-.58-1.04-.582.01.582.593.582 1.004.634M30.47 9.436c-.022.41.31.648.863.616-.143-.414-.428-.64-.863-.616m-1.292 4.274c-.452-.219-.818.058-1.27-.045.129.65.876.177 1.27.045m.855-4.93c.117.413.273.503.686.441-.132-.34-.343-.476-.686-.44m.222-.214c-.159-.353-.242-.398-.58-.36.14.347.34.477.58.36m-2.058 11.479q.161.283.316.562c.416 0 .064-.359-.032-.512-.054-.06-.17-.06-.256-.087zm-1.193.495c.211-.125.43-.224.62-.381l-.127-.187c-.18.185-.608.245-.493.568m2.75-12.547c.059-.224-.25-.521-.472-.432.031.249.282.467.471.432M8.977 11.828c.114-.11-.058-.292-.17-.178-.115.11.058.293.17.178m.152.328c.113-.11-.06-.291-.17-.179-.116.112.056.293.17.18"/><path d="m8.339 10.68-.002.001-.272.02.142.372.192-.233.036.017.028.495c.05.435.688.168.434-.181l-.309-.378a.1.1 0 0 0 .016-.037l.295.032-.143-.372-.213.181a.1.1 0 0 0-.034-.016l-.026-.359-.35.144.22.278a.1.1 0 0 0-.014.035m-.783 1.94c.176.005.18-.283.003-.283-.175-.003-.18.282-.003.282m-.03.367c.178.004.181-.282.004-.282-.175-.005-.178.282-.003.282m.57-1.256c.176.005.18-.282.003-.282-.175-.004-.18.282-.004.282m-.429.554c.18.006.183-.282.004-.282-.173-.004-.179.282-.004.282m1.652.351c-.009-.142.09-.418.09-.418l-.557.23s.256.13.343.239a.45.45 0 0 1-.394-.013l.217.446c.047-.198.146-.314.22-.329.235.372-.35.782-.601.463-.074-.134.012-.278.162-.166-.021-.276-.254-.276-.325-.071.008-.284-.061-.455-.35-.54-.074.284.018.454.29.575-.154-.02-.322.139-.111.338.002-.179.146-.2.224-.078.124.33-.251.458-.56.121.069-.026.143-.014.24.01l-.294-.385a.6.6 0 0 1-.02.293c-.063-.074-.085-.14-.112-.287l-.224.203c.215.138.455.357.75.792.39-.396 1.963-1.077 2.57-1.059-.074-.524-.045-.853.018-1.107l-.3.011c.08.127.109.189.114.29a.6.6 0 0 1-.211-.198l.041.487c.056-.088.101-.148.168-.176 0 .462-.357.637-.487.309-.022-.144.095-.232.215-.103.021-.295-.206-.291-.305-.164.117-.284.072-.473-.17-.626-.154.265-.09.439.103.64-.188-.098-.358.066-.19.283.036-.187.195-.144.23.005.028.41-.668.527-.746.09.065-.041.215-.026.38.084l-.14-.478a.48.48 0 0 1-.278.29m7.37 15.124c.211.127.446.267.66.392-.524.66.418.946.366.302.352.157 1.738.598 1.182-.26-1.818.062-2.744-1.911-1.738-3.418.611.288 2.76-.793 2.58.306.113.123.145.135.4.133.623-1.477-1.518-1.036-2.287-.863-.684.21-1.314-.827-1.92-.26-.241.221-.084.712.243.727.29.01.372-.403.115-.532.564-.196.293.741.087.98-.646-.345-.753.732-.114.45.03.192.038.383-.007.568-.699-.155-.513.881.01.465.153.147.223.379.24.599-.701.103-.142 1.032.183.41"/><path d="m18.72 28.887-.098-.033c-.048.136-.124.384-.007.47l.589.262.756-.58.204-3.141-.222.018c-.06.008-.473 3.626-.688 3.413.044-.237.547-3.413.547-3.413s-.15-.022-.224-.031l-.029.166-.833-1.134-.11.055.895 1.215-.058.215c-.083-.054-.946-1.292-1.03-1.408l-.178-.015 1.163 1.568-.061.211-1.304-1.772-.166-.001 1.41 1.923-.074.276-1.549-2.179-.206.006 1.715 2.34-.063.216-1.892-2.556-.032.196s1.762 2.395 1.87 2.552c-.092.295-.022.32.1.564.07.273-.113.696-.425.597"/><path d="m18.897 27.89-1.809-2.481s-.036.116-.05.168c.135.183 1.734 2.379 1.734 2.379zm-1.814-1.645c.419.547.828 1.108 1.236 1.662.06.008.174.032.174.032l-1.477-2.026s-.025.206.067.332m3.155-.922c-.2-.017-.413-.058-.608-.078-.381.343.047.54.332.513.244.066.57-.269.276-.435m-.061 8.858c-.06.28.368.37.418.087.06-.28-.366-.37-.418-.087m.384-1.684c.074-.348-.455-.46-.52-.11-.074.347.457.459.52.11m-1.807-.927c.074-.347-.455-.459-.518-.11-.074.348.455.46.518.11m3.16 3.06c-.302.032-.458.241-.616.458-.141-.091-.327-.181-.5-.181a.4.4 0 0 0-.262.092c.552.225.355 1.086-.18 1.09-.539-.004-.735-.865-.183-1.09a.4.4 0 0 0-.262-.092c-.173 0-.359.09-.5.181-.159-.217-.314-.426-.615-.457.164 1.58.863 2.369 1.56 2.369.696 0 1.393-.79 1.557-2.37m-.252.34c-.216 1.253-.794 1.82-1.307 1.82-.514 0-1.093-.567-1.306-1.82.064.064.128.146.2.245l.114.153.157-.1q.101-.068.193-.105a.8.8 0 0 0-.06.495c.069.375.356.64.702.642.345-.002.632-.267.7-.642a.8.8 0 0 0-.059-.495c.06.026.127.06.193.104l.157.101.114-.153a2 2 0 0 1 .202-.245m-4.733-4.482c.231-.286-.58-.661-.696-.822-.096-.06-.217-.045-.282.041-.231.273.567.655.675.807.098.078.235.067.303-.026"/><path d="M16.826 31.1c.894.004.778-1.464-.102-1.309.407.23.761.833.126 1.01-.238.05-.484-.216-.66-.349a.65.65 0 0 0 .636.648"/><path d="M15.556 31.343c.196.386 1.346 1.44 1.659.943-.562-.295-1.513-1.02-1.148-1.942-.825-.523-.096-1.36.546-.65.686-.439 1.446-.123 2.121.36.244-.541-.935-.916-1.209-1.077-.347-.121-1.44.136-1.807.153a.48.48 0 0 0-.406.521c.056.276.047 1.471.244 1.692m10.133-20.72.51.17c-.806-1.753-2.277-3.067-4.05-3.54a4 4 0 0 0-.119.392c1.556.404 2.87 1.502 3.66 2.978m-10.498.17.51-.168c.788-1.478 2.102-2.576 3.66-2.98a5 5 0 0 0-.12-.392c-1.772.47-3.245 1.787-4.05 3.54m9.334-2.836c.365.006.365-.584 0-.579-.363-.005-.363.585 0 .58m-1.285-.756c.365.004.365-.586 0-.58-.363-.006-.363.586 0 .58m-.697-.261c.365.005.365-.587 0-.581-.363-.006-.363.586 0 .58m1.36.6c.364.006.364-.584 0-.578-.363-.006-.363.584 0 .579m1.198.899c.363.005.363-.585 0-.579-.363-.006-.363.586 0 .579m1.453 2.179c-.005.377.567.377.561 0 .006-.376-.566-.376-.561 0m-.338-.682c-.005.377.565.377.56 0 .005-.375-.567-.375-.56 0m-.592-.954c.363.006.363-.584 0-.579-.364-.005-.364.585 0 .58m.186.31c-.005.375.565.375.56 0 .005-.377-.565-.377-.56 0m-8.946-1.335c.363.006.363-.584 0-.579-.363-.005-.363.585 0 .58m-.576.482c.365.005.365-.585 0-.579-.362-.006-.362.586 0 .579m-1.732 2.468c.364.006.364-.584 0-.579-.363-.005-.363.585 0 .58m2.931-3.366c.365.005.365-.585 0-.579-.363-.006-.363.584 0 .579M15.3 9.58c.365.006.365-.586 0-.58-.362-.006-.362.586 0 .58m-.404.645c.363.005.363-.585 0-.58-.365-.005-.365.587 0 .58m3.951-3.286c.363.003.363-.587 0-.581-.363-.006-.363.586 0 .58m-3.08 2.042c.364.006.364-.584 0-.579-.364-.005-.364.585 0 .58M18.15 7.2c.365.004.365-.586 0-.58-.362-.006-.362.586 0 .58m3.028 2.692h.373c.002-1.223.172-2.281.48-2.981.105-.226-.24-.39-.339-.161-.446 1.01-.512 2.4-.514 3.142m-1.338 0h.374c0-.743-.069-2.132-.513-3.142-.1-.23-.444-.065-.341.16.309.7.48 1.76.48 2.982m.856-.005c.393.005.393-.633 0-.628-.394-.005-.394.633 0 .628m0-.786c.393.005.393-.635 0-.63-.394-.005-.394.635 0 .63m0-.788c.393.005.393-.633 0-.628-.394-.005-.394.633 0 .628m-.215-.768a.46.46 0 0 1 .43 0c.434-.694-.865-.692-.43 0"/><path d="M20.937 6.885c.337-.651-.822-.65-.484 0a.47.47 0 0 1 .484 0"/><path d="M20.512 4.242c-.05.401-.252.711-.505.76v.102h.493a.3.3 0 0 0-.062.064c-.879.201-.969 1.587-.13 1.913-.326-.326-.075-.955.387-.939.462-.016.715.613.386.94.841-.327.75-1.713-.128-1.914a.3.3 0 0 0-.061-.064h.492v-.102c-.253-.049-.456-.359-.505-.76.388.05.688.261.734.522h.1V3.34h-.1c-.046.261-.346.472-.734.523.049-.402.252-.714.505-.76V3h-1.377v.103c.253.046.455.358.505.76-.388-.05-.69-.262-.736-.523h-.098v1.424h.098c.047-.261.348-.472.736-.522m12.154 22.287.002.002a4 4 0 0 1-.087-.164.23.23 0 0 0 .085.162m-.07 1.094c-.042.05-.318.865-.41.833-.038-.065-.125-.108-.197-.086-.043-.02-.058-.082-.036-.134.052-.054.309-.887.43-.831.032.078.126.129.204.106.021.03.027.073.009.112m-.751 2.842c.027-.205-.231-.32-.334-.144.027-.078-.072-.859.068-.859.06.045.137.053.2.006.042.008.076.052.076.105l.002.844a.1.1 0 0 1-.012.048m.406 1.47c-.24 1.433-2.022.013-.747-.592.06.138.261.143.32.003.246.075.427.31.427.588m.184-4.803c-.39-.252-.605.863-.751 1.055-.069.163-.007.338.135.39l-.285.617c-.155-.026-.289.095-.289.282.058.239-.173 1.282.237 1.294v.289c-.99.183-.841 1.794.175 1.77 1.01.026 1.168-1.572.188-1.766v-.279c.155.027.288-.095.288-.281-.054-.232.157-1.238-.204-1.29l.217-.47c.372.208.589-.879.73-1.064.064-.153.014-.324-.114-.38l.164-.357a5 5 0 0 1-.233-.366zm-19.82-1.803.087.347 1.545-.198-.074-.316c-.08-.016-1.043.167-1.043.167s.915-1.104.893-1.236l-1.56.183.033.278.917-.133s-.762.89-.798.908m.637 1.223c.329-.615 1.42-.249.968.451-.34.596-1.41.26-.968-.451m-.086.827c.747.74 1.922-.446 1.148-1.206-.748-.747-1.94.444-1.148 1.206m1.038 1.744.261.373c.277-.353.847-.778 1.257-.94l-.26-.374c-.101.171-.323.34-.497.463l-.4-.572c.168-.13.391-.297.58-.343l-.26-.374c-.277.353-.85.78-1.259.943l.262.372c.099-.17.321-.336.494-.461l.4.573c-.169.13-.39.295-.578.34m-.148-5.576.021-.341a4.9 4.9 0 0 1-1.592-.004l-.021.342a4.9 4.9 0 0 1 1.592.003m11.216 6.907c.946-.43.735-1.4-.332-.956-.447-.13.118-.603.415-.498l.006-.008-.224-.274c-.336.15-.87.62-.587 1.015.199.262.598-.017.858-.013.433.08-.033.545-.3.52l-.005.005m2.761-3.187.268-.943c-.136.011-1.363-.359-1.472-.443l-.254.895.255.226.005-.004q-.03-.308.081-.695l.466.14c-.047.14-.13.46-.193.544l.233.035.148-.52.445.132a1 1 0 0 1-.22.407zm-.62 1.253.144-.292-1.211-.838-.132.261c.045.062.834.544.834.544s-1.302.177-1.363.28l1.211.859.141-.21-.726-.489s1.067-.127 1.102-.115m-3.345 3.07.843-.503c-.107-.084-.764-1.195-.787-1.33l-.8.478.034.34.008.002a1.9 1.9 0 0 1 .532-.452l.25.42c-.129.071-.409.247-.514.264l.148.186.468-.28.238.404q-.237.135-.442.145zm-9.401-11.015c-.251-.205-.576.162-.829.222-.438.026-.092-.54.174-.579l.001-.007-.21-.16c-.398.208-.7 1.099-.059 1.118.138.005.484-.243.598-.27.303-.059.207.36.025.46.09-.005.184-.017.27.006.167-.243.275-.598.03-.79m.312-.478c-.702-.047-.85-1.303 0-1.115v-.304c-1.1-.067-1.085 1.74 0 1.703zm1.746-2.224c.003-.002.482 0 .485-.002l-.33-.547c.168-.1.525-.25.686-.239l-.383-.3-1.173.724.135.467.006.002c.095-.192.238-.347.395-.439.034.067.1.187.179.334m2.53-.455c.589-.236.078-1.175-.442-.954-.581.23-.08 1.178.442.954m.896.242.002.008c-.233.196-.531.116-.784-.023-.73.422-1.518-.569-.931-1.208.615-.76 1.84.103 1.249.941q.287.23.464.282m.22-.672c-.006-.26.03-.719-.078-.943h.522c-.085.243-.235 1.354.21 1.298.174.004.35-.123.346-.312-.007-.265.034-.756-.078-.986h.522c-.121.419-.121 1.152 0 1.57h-.442a.5.5 0 0 0 .014-.154c-.451.33-1.06.166-1.016-.473m2.207.777c.093-.388.224-1.047.432-1.374l-.404-.14c.003.416-.212 1.064-.347 1.46.155.02.155.02.32.054m-.94 3.295h.002c-.002.002 0 .041 0 .043.005-.08.13-.022.069.034l.02.019c.124.015.142-.18.016-.187v-.004l.151-.069v-.047l-.151-.069v-.003c.126-.008.108-.202-.017-.187l-.02.02c.062.053-.063.113-.068.032 0 .006-.002.043 0 .049h-.002v-1.69h.13v-.127h1.408c.078.013.01.125-.038.067l-.02.019c-.016.127.195.136.192.007l.075.157h.05l.07-.155c0 .127.207.118.195-.01l-.022-.018c-.049.058-.116-.052-.038-.067h1.41v.127h.13c-.015-.03.05 2.072-.069 1.61l-.02-.021c-.124-.015-.142.18-.016.187v.003l-.152.07v.046l.152.07v.003c-.126.007-.108.202.016.187l.02-.019c.12-.478.054 1.671.069 1.611h-.13v.125h-1.407c-.08-.01-.018-.125.037-.067l.02-.019c.014-.125-.19-.138-.194-.013h-.003l-.07-.15h-.05l-.07.15h-.003c-.006-.125-.204-.112-.192.013l.02.02c.052-.059.117.055.036.066H21.6v-.125h-.13zm3.672 1.94v-4.253h-3.8v4.253z"/><path d="M25.303 18.376v4.58h-4.126v-4.58zm.397 4.578c.002-.088-.092-.153-.175-.123v.018c-.15.702-.076-2.184-.09-2.078l.137.058v-.336l-.137.06.002-2.129c.018-.106.178-.015.09.054v.019c.19.064.245-.25.043-.254l.127-.226-.031-.032a7 7 0 0 1-.23.13c-.001-.197-.32-.148-.26.04h.02c.067-.084.165.067.056.09h-1.898l.06-.133h-.346l.06.133h-1.895c-.116-.017-.018-.176.05-.09h.02c.063-.188-.258-.237-.26-.04-.002.001-.227-.13-.23-.13l-.03.032.127.226c-.203.004-.147.318.043.254v-.019c.148-.7.078 2.172.09 2.073l-.135-.058v.336l.135-.056c-.012-.05.058 2.761-.09 2.076v-.018c-.19-.062-.246.252-.043.253l-.127.228.03.03a6 6 0 0 1 .23-.127c.002.194.323.146.26-.043h-.02c-.029.047-.106.023-.105-.033 0-.028.022-.05.051-.056h1.899l-.06.134h.345l-.06-.134h1.896c.029.005.05.028.05.056.002.056-.075.08-.104.033h-.02c-.062.189.258.235.26.043.004-.004.227.127.23.127l.03-.03-.127-.228a.13.13 0 0 0 .132-.13M7.756 12.842l.092-.079c.034-.392.213-.741.504-.958q-.03-.041-.06-.076c-.329.246-.522.657-.536 1.113m.892-.553.086-.03c-.057-.168-.184-.476-.368-.667-.041-.044-.11.021-.067.064.128.133.251.356.349.633m-.796-.31c.176.006.18-.28.003-.28-.175-.006-.18.282-.003.28m2.59-.605c-.121.134-.321-.064-.197-.194.12-.133.32.063.197.194m.272.235c-.12.135-.32-.063-.196-.194.119-.132.321.065.196.194m-1.263-.46c-.121.135-.321-.064-.197-.193.12-.133.32.063.197.194m.68.074c-.12.134-.32-.064-.196-.194.119-.133.32.065.196.194m.323.453-.119.014c-.294-.249-.66-.36-1.012-.297q-.009-.053-.013-.1c.4-.068.82.077 1.144.383m-1.027.273-.083.043c-.074-.16-.2-.469-.202-.74-.002-.061.09-.067.09-.005.002.189.07.437.195.702m.365-.805c-.12.135-.321-.063-.197-.194.12-.132.322.066.197.194m14.63 15.11c.395-.007 1.309-.455.645-.826-.372-.064-.742.123-1.1.209-1.44.593-.595-.13-1.49-.053.3.79 1.063.383 1.635.198.018.088-.089.109-.074.195l.556-.118c.08-.388.763-.392.45-.004-.79.355-1.72.29-2.544.532-.553 1.494-1.513.478-1.502.906-.217.02-.213.235.009.216.004.437 1.067-.067 1.263-.201.05-.105.093-.202.138-.3.323.162.55-.318.83-.404.28-.058.645-.342.88-.078.266.302.663-.161.896.145-.088.235.027.133.067.28-.004.133.21.13.213-.003 0-.058.007-.094.063-.118.118-.187-.133-.392-.222-.547-.193-.193-.516.175-.713-.028"/><path d="M20.86 25.596c.066.022.04.1.071.142.34.022.679-.07 1.022-.114.256 0 .245-.234.433-.265.453.024.735-.389 1.16-.456.342-.1.802-.23 1.104.017.072.084.178.1.287.078.144-.026.316-.058.391.116l-.08.088q.021.05.048.108c.07-.004.081.054.108.103.038.063.128.065.143-.002.018-.082.1-.041.126-.114.015-.215-.032-.482-.24-.592-.103-.099-.509.105-.52-.103.302.071.883-.336.484-.599-.675-.162-1.415.174-2.101.254-.27.062-.134-.392-.73-.27.383.826 1.21.242 1.85.235.006.074-.12.07-.09.162.186-.06.504.043.61-.15.058-.235.537-.179.396.092-.358.237-.892.129-1.314.177-.515.045-1.078.058-1.56.243-.095.31-.227.63-.572.702-.242-.242-.592.045-.85-.201-.087.018-.101.07-.136.136-.126.05-.17.125-.04.213m3.799 2.173c-.675-.09-.572.39-.905.276.06-.074.226-.12.172-.233-.495.222-1.015.383-1.507.612-.25.275-.168.824-.733.874-.02.286-.408.478-.646.351-.096.094-.055.118-.04.204-.081.076-.193.252-.018.25.056-.011.099-.097.155-.07l-.013.117c.047-.002.11.015.127-.006.077-.1.19-.019.276-.097.29-.202.704-.389.682-.807.513-.233.809-1.09 1.477-.79.33.185.42-.367.716-.378.083.201.123.184.231.117.184.148.154-.086.226-.192.009-.107-.096-.23-.2-.228"/><path d="M21.608 24.41c-.106.317.004.738.289.913.325-.15.534-.592.42-.961.078-.068.174-.101.145-.215-.05-.127-.244-.032-.294-.181-.123-.174-.286-.032-.385.084-.074.01-.148-.03-.216.007-.073.135.124.215.041.353m-.083 4.442c.316.786.794-.213.675-.64.219-.187.159-.297-.106-.316-.092-.205-.295-.226-.434-.052-.048.063-.12.04-.186.046-.135.066-.06.22.058.254-.065.237-.097.475-.007.708m.872-2.915a.35.35 0 0 0-.208-.033c-.113-.305-.317-.189-.482-.008-.245-.1-.207.127-.08.252-.122.31-.035.771.283.904.337-.146.43-.567.41-.907.104-.019.189-.14.077-.208m2.415 1.027c-.603-.209-1.552 1.15-1.953.75-.098-.22-.397-.195-.587-.135.228.168.35.54.695.42.388-.079.693-.404 1.03-.553.008.118-.107.168-.154.278.23-.075.437-.142.606-.293-.029-.657.881-.198.01.207.153.004.263.077.366-.056.2-.184.21-.451-.013-.618m-1.372 1.522c-.177.045-.354.062-.464.248.046.062.087.12.132.185-.085.226-.301.189-.507.198l.043.159q-.13.07-.103.239l.078.026c.056-.073.159-.148.184-.01.37-.124.702-.358.88-.716a.7.7 0 0 1-.243-.329"/><path d="M22.951 27.134c-.078-.002-.096.103-.041.151.054.062.106-.005.166.014l.005.091c.323.019.814-.28.986-.549l-.2-.323c-.178.058-.378.054-.483.217.063.07.12.13.179.198-.117.069-.255.183-.384.072-.053-.048-.2-.026-.163.07.004.014-.004.033-.005.052zm-1.377 2.04c-.12-.242-.307-.464-.396-.718.107-.155.058-.355-.14-.228-.05-.104-.125-.123-.219-.097-.027.067-.04.13.03.183.005.004 0 .02-.003.03l-.063.022c-.05.135.078.212.123.316.139.228.347.78.668.491m0-3.99c-.017-.337-.392-.552-.278-.888a.15.15 0 0 0-.042-.186c-.11.03-.11.03-.193-.025-.139-.073-.159.088-.148.19l-.09.046c.097.287.388 1.008.75.862m-.722 1.136c.137.219.175.562.41.69.106 0 .272.1.335-.03-.068-.26-.379-.41-.334-.705q.02-.104-.065-.198c-.119.036-.37-.244-.28.09-.073.026-.117.08-.066.153m-5.354-6.7c.05.001.103-.06.157-.005l-.014.086c.328.148.689-.018 1.016-.11.128-.041.202-.175.345-.174.337.027.528-.267.819-.35a5.2 5.2 0 0 1 1.087-.124c.418.594.494.09.871.291q-.015.085-.034.176l.1.034c-.037.147.175.233.202.046.005-.022-.006-.052.025-.056.224-.125-.12-.737-.357-.577-.121.058-.28.118-.376-.033.21-.088.468-.066.61-.267.107-.135.096-.402-.106-.474-.526-.15-1.083.125-1.614.173-.998.28-.287-.222-1.078-.218.284.84 1.134.3 1.726.239-.043.099-.139.136-.179.224.208-.041.484.04.64-.127.08-.23.61-.258.483.056-.498.504-2.06.032-2.754.355-.103.328-.288.547-.59.634-.25-.158-.362.023-.61-.048-.07-.079-.14-.168-.246-.08v.117c-.118-.034-.25.135-.123.211"/><path d="M16.363 18.338c-.185.351-.13.665.088.958.41.015.576-.564.51-.915l.125-.087-.032-.128-.208-.009c-.148-.198-.236-.201-.413-.024-.121-.047-.121-.047-.202.063.029.064.068.11.131.142m1.998.75c-.018.098.068.14.085.217-.11.073-.23.077-.347.094-.061-.064-.085-.18-.193-.146-.061.015-.027.082-.072.108-.12-.009-.12-.009-.137.114l.11.07c-.089.436 1.065-.02 1.236-.148-.056-.099-.128-.166-.15-.28-.047-.19-.39-.036-.532-.028m-2.157.055c-.013-.153-.05-.332-.168-.439-.13-.14-.174-.332-.04-.482-.067-.065-.155-.013-.22-.104-.085-.099-.134.015-.155.12-.235.033-.1.113-.046.244.078.224.356.762.629.661m3.483 1.634c-.122.06-.283.117-.379-.032.212-.09.471-.067.614-.27.108-.135.098-.406-.106-.477-.531-.153-1.09.125-1.628.172-1.006.284-.288-.222-1.085-.219.285.846 1.142.303 1.738.241-.042.1-.14.137-.179.226.21-.04.488.041.645-.129.08-.231.613-.26.489.056-.504.508-2.078.032-2.778.359-.105.33-.29.55-.598.64-.21-.136-.325-.026-.507-.031.007.061.025.12.04.18q.02.093.025.187c.211-.024.424-.106.625-.164.131-.041.205-.177.348-.173.341.024.534-.27.827-.355.359-.071.725-.131 1.095-.123.423.597.499.09.878.293l-.033.175.1.036c-.039.147.174.235.203.046.006-.022-.005-.052.026-.056.225-.127-.121-.743-.36-.582"/><path d="M16.307 20.254c-.186.353-.132.67.09.965.413.015.581-.567.514-.92l.125-.092-.033-.127c-.076-.003-.142-.005-.207-.009-.15-.198-.24-.204-.417-.024-.123-.047-.123-.047-.204.063a.27.27 0 0 0 .132.144m2.016.756c-.02.1.068.142.083.219-.11.074-.23.078-.348.095-.062-.066-.087-.181-.195-.148-.062.015-.027.082-.073.11-.12-.01-.12-.01-.139.114l.112.07c-.09.44 1.074-.017 1.246-.15-.056-.097-.128-.166-.15-.282-.049-.192-.394-.034-.536-.028m-2.177.054c-.013-.153-.049-.334-.168-.442-.132-.14-.175-.334-.04-.484-.067-.067-.157-.013-.222-.106-.084-.101-.135.015-.155.12-.238.035-.101.115-.049.246.08.226.36.769.634.666m3.583 1.513c-.123.057-.283.117-.38-.034.21-.088.472-.065.615-.269.106-.136.097-.405-.107-.476-.53-.153-1.09.125-1.626.172-1.006.282-.287-.222-1.085-.219.285.846 1.142.303 1.738.241-.043.1-.14.136-.18.226.21-.041.487.04.644-.129.081-.231.614-.257.488.056-.502.508-2.074.032-2.773.359-.105.33-.29.549-.596.638-.25-.158-.363.023-.613-.048a1 1 0 0 0-.074-.079q-.012-.004-.02-.015l-.03-.015q.004.006.004.012c.004.15-.032.298-.088.437.325.134.68-.028 1.002-.12.13-.041.206-.177.348-.174.34.027.533-.268.825-.352a5 5 0 0 1 1.094-.124c.422.596.498.09.877.292l-.032.175c.038.015.068.024.099.036-.038.147.175.235.204.046.004-.022-.005-.052.025-.056.226-.127-.12-.743-.359-.58"/><path d="M16.354 22.054c-.186.353-.132.668.088.963.413.015.581-.566.513-.918l.126-.092-.033-.127q-.111-.004-.207-.01c-.15-.197-.24-.2-.417-.022-.121-.048-.121-.048-.204.064a.28.28 0 0 0 .134.142m2.01.756c-.018.099.069.14.085.217-.11.074-.23.078-.348.095-.062-.066-.087-.18-.195-.146-.061.015-.027.082-.072.108-.12-.01-.12-.01-.137.114l.11.07c-.09.44 1.072-.017 1.245-.15-.056-.097-.13-.166-.151-.28-.05-.194-.394-.036-.537-.028m-2.339-.388a.5.5 0 0 1-.065-.084c-.007.078.032.17.018.248a2 2 0 0 1-.043.21c.095.096.151.107.256.068-.01-.155-.049-.334-.166-.442m6.03-3.1c.093.058.16.333.214.372.104.14.32.515.53.439v-.008c.064-.024.123-.215.127-.24a.4.4 0 0 0-.078-.074c-.198-.179-.317-.354-.321-.519-.01-.052.112-.125.103-.175-.004-.187-.154.024-.213-.008-.033-.054-.145-.207-.213-.132-.044.022.01.13-.024.157-.016.022-.025.026-.074.024-.159-.002-.18.1-.05.164"/><path d="M22.906 20.583a3 3 0 0 0 .231-.252c.016-.038.022-.038.134-.05.31-.044.467-.175.554-.518.043-.105-.011-.329-.076-.375-.024-.02-.034-.053-.02-.064.058-.01.179-.058.199-.127-.033-.067-.112-.017-.222-.054-.08-.037-.293-.106-.38-.056-.06.076-.424.084-.359.196.015.041.042.136.042.136l.164.019.002.123s-.117.028-.157.036c-.098.15.235.16.321.046.06-.072.152-.084.148-.003-.043.097-.202.147-.296.194-.139.024-.175.308-.283.401-.303.058-.412.05-.712-.201-.11-.131-.194-.032-.113.07-.054.017-.332-.145-.206.133l.022.024c-.137.206.066.137.18.2.244.101.513.176.827.122"/><path d="m23.877 20.385.128.276s.276.127.314.164c.155.118.129.443-.01.405-.23-.097-.367-.43-.526-.638-.041-.034-.151-.372-.224-.288-.944.22.172.47 0 .833-.034.052-.139.306-.095.344.08.1.258.175.35.302.155.155.016.336-.173.19-.109-.083-.237.038-.127.15.008.022-.066.054-.08.063-.111.16.075.152.172.071.054-.028 0 .14.092.112.172-.039.439-.128.488-.407.106-.257-.141-.214-.202-.438-.062-.092-.067-.43.068-.305.123.163.293.256.446.11.14-.138.013-.472-.061-.621-.136-.293-.295-.577-.284-.93.192-.235.415.185.55-.47-.447.031-.887.341-.667.862.137.293.106.27-.159.215"/><path d="M23.157 20.94c-.237-.012-.417-.033-.35.259.012.069.038.282.077.33.017.028.015.058-.007.077-.096.054-.457-.097-.413-.224 0-.107-.103-.131-.132-.055-.016.032-.042.032-.078-.01-.068-.1-.16.035-.122.11.014.03-.004.061-.038.067-.1.04-.094.183.045.188.301.144.563.293.913.243l-.005.002c.382-.032.186-.107.17-.383-.067-.295.422-.49-.06-.605m.359 4.226c-.025-.022-.087.004-.094.019.002.134-.135.095-.177.187.027.056.067.1.125.095.074-.008.067.086.133.091.316-.147.69-.112.957-.366-.101-.09-.124-.209-.146-.336-.182.013-.36-.013-.516.077-.015.086.043.13.083.205-.128.056-.244.086-.365.028"/><path d="M20.707 31.378c.381-.35.645-.472 1.136-.594-.136.314-.266.615-.401.932-.245-.114-.487-.224-.735-.338m-.095-7.595h5.377c.44 4.251-1.97 5.674-5.377 7.156zm7.944-2.278c-.125-.275-.412-1.817-.829-1.48 1.903 3.672.634 8.504-2.668 10.83-.969.605-2.171 1.612-3.317.941.74-2.981 4.285-1.723 5.056-7.406-.096-.047-.132-.077-.219-.094-.11.794-.303 1.557-.59 2.291.307-.846.112-3.493.17-3.639-.033-.045-.065-.061-.17-.194.018.32-.002.435.002.859h-5.38v-5.805h5.28v3.275c-.003.019.02.174.031.231.076-.12.081-.115.132-.154v-3.52H14.982l-.011 2.965h.164v-2.797h5.312v5.805h-5.124c-.015.015.003-.092-.013-.077-.002-.015-.036.092-.036.077h-.142c-.004-.27.003-.437.003-.446l-.164-.006c-.12.435.23 4.076.81 4.716-1.157-1.16-1.521-3.219-1.305-4.768 0 0-.108-.086-.225-.198-.363 2.184.435 4.339 1.915 5.902.13.142.27-.011.428-.052-.033-.036-.102-.09-.15-.16l.15.16-.082-.236c-1.162-.916-1.354-3.542-1.379-4.742h5.314s-.003 7.276-.007 7.293c-1.13-.058-1.895-1.326-2.985-1.339 1.566.96 4.433 3.277 6.243 2.261.015.019.013.015.026.034-.19.244-.861.711-1.16.593-.494-.308-1.254.252-.904.82.046.067.073.127.02.215-1.958-.19-3.718-1.4-5.368-2.437l-.029.034c.632.883 2.892 1.98 2.892 1.98l-.002 1.313.238.165v-1.421c.594.21 1.794.601 1.794.601l.004.887.23-.151-.013-.665.321-.092c.2-.057.33-.257.307-.47a.25.25 0 0 1-.134-.29c.047-.259.35-.265.473-.11.246.114.486-.19.728-.263.34-.213.762-.403.919-.808a.35.35 0 0 1 .166-.213c.687-.403 1.353-.85 1.913-1.432 2.399-2.097 3.235-5.699 2.437-8.783m-19.85 12.21a.63.63 0 0 0-.455-.072c.037.282.137.805.216 1.077.507-.074.659-.73.238-1.004"/><path d="m15.061 32.347.23 1.199-.266.048-.236-1.19c-.163.03-.255.03-.477.13l-.007-.269 1.148-.153.08.226c-.105-.04-.472.01-.472.01m-.838 1.404-.796.189c.015-.123-.252-1.277-.32-1.382l.838-.2-.066.292a.84.84 0 0 0-.408.002l.097.418.464-.11.076.203c-.092-.015-.372.06-.498.084l.1.437q.343-.081.566-.24l.004.001zm-2.31.428c-.581.015-.666-.844-.802-1.268l.282-.054c.135.368.098 1.23.695 1.116.433-.2.083-.91.038-1.252l.278-.041c.105.569.354 1.557-.491 1.499m-.818.13-.798.182c.017-.124-.24-1.28-.306-1.386l.839-.192-.069.291a.86.86 0 0 0-.408-.002l.094.419.464-.105.076.203c-.094-.014-.374.056-.5.08l.098.438q.34-.079.566-.236l.004.002zm-1.494.335a3.5 3.5 0 0 0-.29-1.416l.389-.085a3.5 3.5 0 0 0 .29 1.415zm-.394-.249c-.164.407-.66.5-1.047.572.018-.127-.218-1.305-.29-1.412.67-.297 1.628-.01 1.337.84m6.412-2.612c-3.045.004-6.078 1.35-9.125 1.35q-.546 0-1.096-.063c.945.77.878 2.317 2.25 2.317q.09 0 .187-.01c1.865-.205 3.719-.75 5.555-1.05.315-.051 1.835-.436 2.725-.436.322 0 .56.05.63.185.098.181-.507.708-.512.728q-.002.01.009.01c.06 0 .393-.2.644-.372.993-.737-1.088-2.659-1.267-2.659m14.107 1.33c-.064.261-.165.756-.197 1.027.597.13.783-.906.197-1.027m2.343.42c-.457-.118-.607.866-.226 1.025.466.114.606-.865.226-1.025m-1.196-.185-.139.523c.389.074.556-.458.14-.523m-3.662-.749c-.476-.134-.66.885-.26 1.057.486.134.663-.88.26-1.057"/><path d="M33.554 33.895s-.177 1.036-.166 1.124l-.301-.056c-.006.008.185-.91.232-1.107a.6.6 0 0 0-.352.033l-.001-.003.12-.26.818.151.058.288c-.07-.07-.29-.148-.408-.17m-.715.058c-.03.239-.139.726-.095.954l-.304-.045c.134-.355.224-.95.203-1.33l.303.048q-.074.157-.107.373m-.807.791c-.774.15-.774-1.204-.151-1.392.776-.168.78 1.206.151 1.393m-.667-1.067q-.058.229-.327.315c.077.265.124.353.256.64l-.002.008-.204-.034c-.043-.024-.3-.397-.377-.599-.045.166-.09.377-.072.528l-.347-.056c.063-.104.336-1.206.325-1.322.302.04.841.096.747.52m-1.5.62c-.183.067-.443-.008-.632-.045l.254-1.348c.845-.058 1.197 1.073.378 1.392m-1.2-.114c-.095-.021-.606-1.095-.606-1.095s-.122.835-.155.893l-.23-.034.263-1.309.256.036c.002.034.406.919.406.919l.148-.78.195.055zm-1.064-.846c-.276.967-1.354.438-1.033-.424.273-.937 1.352-.44 1.033.424m-1.126-1.042c-.046.043-.208 1.221-.197 1.337l-.307-.062c.056-.103.128-.924.128-.924l-.527.846-.309-.954s-.124.685-.13.905l-.301-.043c.097-.16.285-1.372.285-1.372l.312.06c.008.063.244.886.244.886l.437-.756.366.071zm7.55.833c-.38 0-.742-.008-.92-.023-2.008-.201-3.995-.795-5.997-1.124-.578-.095-1.05-.183-1.46-.183-.85 0-1.43.381-2.114 1.892-.292.573.686 1.12.9 1.144-.802-.71-.523-.92.11-.92.878 0 2.43.401 2.734.44 1.836.303 3.691.846 5.556 1.053q.098.01.188.01c1.371 0 1.305-1.548 2.249-2.317-.168.015-.724.028-1.246.028"/></svg>